<?xml version="1.0" encoding="UTF-8" standalone="no"?>
<!-- Uploaded to: SVG Repo, www.svgrepo.com, Generator: SVG Repo Mixer Tools -->

<svg
   width="900"
   height="900"
   viewBox="0 0 7.1437502 7.1437502"
   id="svg1976"
   version="1.1"
   sodipodi:docname="Certs.svg"
   inkscape:version="1.4.2 (f4327f4, 2025-05-13)"
   xmlns:inkscape="http://www.inkscape.org/namespaces/inkscape"
   xmlns:sodipodi="http://sodipodi.sourceforge.net/DTD/sodipodi-0.dtd"
   xmlns="http://www.w3.org/2000/svg"
   xmlns:svg="http://www.w3.org/2000/svg">
  <sodipodi:namedview
     id="namedview1"
     pagecolor="#ffffff"
     bordercolor="#000000"
     borderopacity="0.25"
     inkscape:showpageshadow="2"
     inkscape:pageopacity="0.0"
     inkscape:pagecheckerboard="0"
     inkscape:deskcolor="#d1d1d1"
     inkscape:zoom="0.35664698"
     inkscape:cx="677.14018"
     inkscape:cy="520.12217"
     inkscape:window-width="1920"
     inkscape:window-height="1009"
     inkscape:window-x="-8"
     inkscape:window-y="-8"
     inkscape:window-maximized="1"
     inkscape:current-layer="svg1976" />
  <defs
     id="defs1970" />
  <path
     id="path1"
     style="fill:#49613f;stroke-width:0.0079375;fill-opacity:1"
     d="M 3.5718751 0 A 3.5718751 3.5718751 0 0 0 0 3.5718751 A 3.5718751 3.5718751 0 0 0 3.5718751 7.1437502 A 3.5718751 3.5718751 0 0 0 7.1437502 3.5718751 A 3.5718751 3.5718751 0 0 0 3.5718751 0 z M 3.0482326 1.0261544 C 3.0817126 1.0266534 3.1116075 1.0319493 3.1427075 1.0361693 C 3.2049216 1.0443163 3.2663467 1.0567733 3.3264637 1.0706013 C 3.4349996 1.0955674 3.557899 1.1195035 3.5702783 1.1239159 C 3.5827285 1.1195932 3.7062728 1.0965227 3.8148835 1.0717951 C 3.8750294 1.0580521 3.9372149 1.0454431 3.9994459 1.0373631 C 4.0616763 1.0292831 4.1187281 1.0166292 4.2092161 1.0461842 C 4.2997103 1.0756712 4.3402424 1.1190447 4.3857634 1.1622857 C 4.4312858 1.2054976 4.4733626 1.2526381 4.5138796 1.2991921 C 4.5871806 1.3834031 4.6729362 1.4747064 4.6800866 1.4852272 C 4.6929254 1.4893095 4.8059869 1.543235 4.9082122 1.587035 C 4.9649144 1.6113794 5.023679 1.6382708 5.0787599 1.6683168 C 5.1338388 1.6984214 5.18744 1.7221161 5.243308 1.7992236 C 5.2991781 1.8763212 5.3055248 1.9352173 5.3169624 1.9969944 C 5.3284062 2.0587227 5.3343509 2.1216248 5.3397827 2.1831536 C 5.3496151 2.2941167 5.3664914 2.4190013 5.3664478 2.4323167 C 5.374177 2.4426106 5.4336272 2.5522067 5.4907193 2.647947 C 5.5223243 2.7009469 5.554306 2.7573466 5.5811944 2.8140919 C 5.6080854 2.8708174 5.6357348 2.9214272 5.6356407 3.0166532 C 5.6355437 3.1118899 5.6086034 3.1621609 5.5815974 3.2188269 C 5.5545924 3.2754938 5.5224303 3.3300199 5.4907193 3.3829719 C 5.4333589 3.4787231 5.3736336 3.5895541 5.3660137 3.5998114 C 5.3658354 3.613156 5.347823 3.7376796 5.3377829 3.8485714 C 5.3322239 3.9100361 5.3265236 3.9730246 5.3149626 4.0347306 C 5.3033916 4.0964358 5.2961199 4.1551214 5.2400989 4.2320984 C 5.184075 4.3090947 5.1310939 4.3326181 5.0759539 4.3626021 C 5.0208176 4.3924891 4.9633664 4.4193308 4.9066154 4.4434808 C 4.8041229 4.487162 4.6902497 4.5413275 4.6776371 4.5453041 C 4.6701145 4.5558193 4.5847497 4.6450774 4.5114767 4.7289208 C 4.4708667 4.7753253 4.4269706 4.8235443 4.3813606 4.8666333 C 4.3357517 4.9097224 4.2953632 4.952239 4.2048132 4.981541 C 4.1142634 5.010843 4.056841 5.0003835 3.99464 4.9919435 C 3.932424 4.9837965 3.8710028 4.9697427 3.8108838 4.9559147 C 3.7024777 4.9309785 3.5797436 4.9086872 3.5671157 4.9045535 C 3.554917 4.9087799 3.4312036 4.9319648 3.322464 4.9567208 C 3.2623182 4.9704628 3.2001326 4.9826598 3.1379016 4.9907498 C 3.0756752 4.9987368 3.0186214 5.0098878 2.9281314 4.9803318 C 2.8376392 4.9508457 2.7970906 4.9074869 2.7515686 4.8642459 C 2.706043 4.8210446 2.6643879 4.7734749 2.6238709 4.7269209 C 2.550645 4.6428311 2.464658 4.55356 2.4572919 4.5432577 C 2.4446143 4.5389733 2.3314488 4.4833192 2.2291353 4.4394811 C 2.1724289 4.4152351 2.1136686 4.3902616 2.0585876 4.3602146 C 2.0035088 4.3301198 1.9499065 4.3060118 1.8940395 4.2289048 C 1.8381695 4.1518072 1.8318231 4.0929099 1.8203851 4.0311339 C 1.8089421 3.9694057 1.8030247 3.9064057 1.7975647 3.8449747 C 1.7877167 3.7338496 1.7708046 3.6087587 1.7708997 3.5957496 C 1.7631884 3.5851112 1.7040961 3.4742552 1.6470313 3.3785691 C 1.6154263 3.3255692 1.5830431 3.271169 1.5561531 3.214424 C 1.5292641 3.1576981 1.5016125 3.1070908 1.5017068 3.0118628 C 1.5018038 2.9166356 1.528744 2.866355 1.55575 2.809689 C 1.582754 2.7530221 1.6149162 2.6964961 1.6466282 2.6435441 C 1.7039892 2.5477981 1.7637172 2.436957 1.7713338 2.4267047 C 1.7715607 2.413395 1.7895383 2.2906835 1.7995646 2.1799445 C 1.8051246 2.1184799 1.8108239 2.0554913 1.8223849 1.9937853 C 1.8339569 1.9320801 1.8412256 1.8733935 1.8972486 1.7964175 C 1.9532725 1.7194117 2.0062361 1.6954948 2.0613781 1.6655108 C 2.1165143 1.6356238 2.1755779 1.6091841 2.2323289 1.5850351 C 2.3347185 1.5413984 2.4471626 1.4873008 2.4597104 1.4832273 C 2.46723 1.4727073 2.5544432 1.3816184 2.6278707 1.2975953 C 2.6684831 1.2511412 2.7103624 1.2045685 2.7559714 1.1614795 C 2.8015824 1.1183413 2.8419843 1.074276 2.9325343 1.044975 C 2.9778114 1.030268 3.0147516 1.0256625 3.0482326 1.0261544 z M 3.5758749 2.1042747 A 0.20458161 0.20541063 1.664302 0 0 3.5606665 2.1046778 A 0.20458161 0.20541063 1.664302 0 0 3.4161482 2.1807507 L 3.1483195 2.515831 L 2.7671955 2.6419473 A 0.20458161 0.20541063 1.664302 0 0 2.6623027 2.9498045 L 2.8961024 3.3085113 L 2.899296 3.7100527 A 0.20458161 0.20541063 1.664302 0 0 3.1595282 3.9070174 L 3.5718751 3.7941251 L 3.9538053 3.9146294 A 0.20458161 0.20541063 1.664302 0 0 4.2188279 3.7280671 L 4.2384391 3.2988995 L 4.4698358 2.9722218 A 0.20458161 0.20541063 1.664302 0 0 4.3761671 2.6599617 L 3.9758194 2.5086221 L 3.7384231 2.1871534 A 0.20458161 0.20541063 1.664302 0 0 3.5758749 2.1042747 z M 2.134645 4.6700717 C 2.2067437 4.7033642 2.2964267 4.7452526 2.3077352 4.7488731 C 2.3074701 4.7484827 2.3073253 4.7481994 2.3073166 4.7480669 L 2.3073321 4.7480514 L 2.3073321 4.7480359 L 2.3073321 4.7480204 L 2.3073476 4.7480049 L 2.3073631 4.7479894 L 2.3073786 4.7479894 L 2.3073941 4.7479894 L 2.3074096 4.7479894 C 2.3075538 4.7479896 2.3078854 4.7481747 2.3084018 4.7485475 C 2.3086839 4.7487532 2.3088555 4.7489163 2.3089134 4.7490126 L 2.3089289 4.7490281 L 2.3089289 4.7490436 L 2.3089289 4.7490591 L 2.3089289 4.7490746 L 2.3089134 4.7490901 L 2.3088979 4.7491056 L 2.3088824 4.7491056 L 2.3088669 4.7491211 C 2.3087262 4.7491544 2.3083418 4.7490673 2.3077352 4.7488731 C 2.3148687 4.7593784 2.4129062 4.8614452 2.4965609 4.9575115 C 2.5424999 5.0103467 2.5898245 5.0642381 2.6414823 5.1132539 C 2.6931544 5.162293 2.7393634 5.2115143 2.8420437 5.2449668 C 2.9447075 5.2785108 3.0092596 5.2660516 3.0798586 5.2569816 C 3.1504336 5.2478406 3.2209807 5.2337176 3.2892257 5.2181468 C 3.4126022 5.1900626 3.5532139 5.1639957 3.5671002 5.1592511 C 3.5664211 5.1590299 3.5660195 5.1588506 3.565922 5.158724 L 3.565922 5.1587085 L 3.5659065 5.158693 L 3.5659065 5.1586775 L 3.5659065 5.158662 L 3.565922 5.158662 L 3.565922 5.1586465 L 3.565922 5.158631 L 3.5659375 5.158631 L 3.5659375 5.1586155 L 3.565953 5.1586155 L 3.5659685 5.1586 C 3.5661065 5.1585273 3.5664735 5.1584909 3.5670692 5.1584915 C 3.567653 5.1584915 3.5680276 5.1585426 3.5681699 5.1586155 L 3.5681854 5.1586155 L 3.5682009 5.158631 L 3.5682009 5.1586465 L 3.5682164 5.1586465 L 3.5682164 5.158662 L 3.5682319 5.1586775 L 3.5682319 5.158693 L 3.5682164 5.1587085 L 3.5682164 5.158724 L 3.5682009 5.1587395 L 3.5682009 5.158755 L 3.5681854 5.1587705 C 3.5680697 5.1588943 3.5676994 5.1590464 3.5671002 5.1592511 C 3.5813695 5.1638998 3.720668 5.1890428 3.8437035 5.2173406 C 3.9119561 5.2330666 3.9813003 5.2488753 4.0518923 5.2581753 C 4.1224672 5.2677813 4.187741 5.2797986 4.2904824 5.2465636 C 4.3932158 5.2133283 4.4389063 5.164944 4.4906563 5.11606 C 4.5424067 5.0671757 4.5923127 5.0125634 4.6383837 4.9599144 C 4.7221543 4.864061 4.8199383 4.7619469 4.8271939 4.7512915 C 4.826582 4.7514807 4.8261867 4.7515603 4.8260466 4.7515241 L 4.8260311 4.7515086 L 4.8260156 4.7515086 L 4.8260156 4.7514931 L 4.8260001 4.7514931 L 4.8260001 4.7514776 L 4.8260001 4.751462 L 4.8260001 4.7514465 L 4.8260001 4.751431 L 4.8260156 4.751431 C 4.8260574 4.7513354 4.826227 4.7511615 4.8265427 4.7509349 C 4.8270664 4.7505551 4.8274064 4.7503755 4.8275504 4.7503768 L 4.8275659 4.7503768 L 4.8275814 4.7503923 L 4.8275969 4.7503923 L 4.8276124 4.7504078 L 4.8276279 4.7504234 L 4.8276279 4.7504389 L 4.8276279 4.7504544 L 4.8276279 4.7504699 L 4.8276279 4.7504854 C 4.8276166 4.7506222 4.8274666 4.750891 4.8271939 4.7512915 C 4.8386103 4.7477617 4.9295725 4.7062224 5.0034932 4.6728777 L 5.0034932 5.3250395 C 5.0034932 5.6621539 4.7260948 5.9395601 4.3889725 5.9395601 A 0.20499564 0.20499564 0 0 1 4.2969006 5.9183366 L 3.5690691 5.555227 L 2.841253 5.9183366 C 2.7438018 5.9670646 2.6260954 5.9718359 2.5337834 5.9411569 C 2.4414687 5.910494 2.3710334 5.8535918 2.3144014 5.7898328 C 2.2011154 5.6623159 2.134645 5.5008133 2.134645 5.3250395 L 2.134645 4.6700717 z " />
</svg>
