<?xml version="1.0" encoding="UTF-8" standalone="no"?>
<!-- Uploaded to: SVG Repo, www.svgrepo.com, Generator: SVG Repo Mixer Tools -->

<svg
   height="900"
   width="900"
   version="1.1"
   id="Icons"
   viewBox="0 0 36 36"
   xml:space="preserve"
   sodipodi:docname="Education.svg"
   inkscape:version="1.4.2 (f4327f4, 2025-05-13)"
   xmlns:inkscape="http://www.inkscape.org/namespaces/inkscape"
   xmlns:sodipodi="http://sodipodi.sourceforge.net/DTD/sodipodi-0.dtd"
   xmlns="http://www.w3.org/2000/svg"
   xmlns:svg="http://www.w3.org/2000/svg"><defs
   id="defs3" /><sodipodi:namedview
   id="namedview3"
   pagecolor="#ffffff"
   bordercolor="#000000"
   borderopacity="0.25"
   inkscape:showpageshadow="2"
   inkscape:pageopacity="0.0"
   inkscape:pagecheckerboard="0"
   inkscape:deskcolor="#d1d1d1"
   inkscape:zoom="0.2521875"
   inkscape:cx="342.99876"
   inkscape:cy="335.06815"
   inkscape:window-width="1920"
   inkscape:window-height="1009"
   inkscape:window-x="-8"
   inkscape:window-y="-8"
   inkscape:window-maximized="1"
   inkscape:current-layer="Icons" />
<style
   type="text/css"
   id="style1">
	.st0{fill:#FFFFFF;}
</style>



<path
   id="path4"
   style="fill:#36482e;stroke-width:0.04"
   d="M 18 0 A 18 18 0 0 0 0 18 A 18 18 0 0 0 18 36 A 18 18 0 0 0 36 18 A 18 18 0 0 0 18 0 z M 18 6.8754688 C 18.12143 6.8754688 18.242867 6.9159219 18.364297 6.996875 L 30.398828 13.415313 L 30.398906 13.415313 C 30.762557 13.497439 30.992969 13.79199 30.992969 14.201719 L 30.992969 24.725625 C 30.992969 25.211344 30.669156 25.535156 30.183438 25.535156 C 29.697718 25.535156 29.373906 25.211344 29.373906 24.725625 L 29.373906 15.534766 L 18.364297 21.406562 C 18.283344 21.487518 18.202375 21.4875 18.040469 21.4875 C 17.878562 21.4875 17.797609 21.487516 17.635703 21.406562 L 5.4927344 14.930312 C 5.2498749 14.768406 5.0879689 14.525531 5.0879687 14.201719 C 5.0879687 13.877906 5.2498749 13.635031 5.4927344 13.473125 L 17.635703 6.996875 C 17.757133 6.9159219 17.87857 6.8754686 18 6.8754688 z M 9.9451563 19.139844 L 16.907109 22.782734 C 17.230921 23.025597 17.635702 23.106562 18.040469 23.106562 C 18.445235 23.106562 18.850016 23.025594 19.173828 22.782734 L 26.135781 19.139844 L 26.135781 22.297031 C 26.135781 24.80658 22.16908 27.154219 18.040469 27.154219 C 13.911859 27.154219 9.9451563 24.80658 9.9451563 22.297031 L 9.9451563 19.139844 z " /></svg>
