<?xml version="1.0" encoding="UTF-8" standalone="no"?>
<!-- Created with Inkscape (http://www.inkscape.org/) -->

<svg
   width="5800"
   height="2000"
   viewBox="0 0 1534.5834 529.16667"
   version="1.1"
   id="svg1"
   inkscape:version="1.4.2 (f4327f4, 2025-05-13)"
   sodipodi:docname="EG-Logo-Full.svg"
   xmlns:inkscape="http://www.inkscape.org/namespaces/inkscape"
   xmlns:sodipodi="http://sodipodi.sourceforge.net/DTD/sodipodi-0.dtd"
   xmlns="http://www.w3.org/2000/svg"
   xmlns:svg="http://www.w3.org/2000/svg">
  <sodipodi:namedview
     id="namedview1"
     pagecolor="#ffffff"
     bordercolor="#000000"
     borderopacity="0.25"
     inkscape:showpageshadow="2"
     inkscape:pageopacity="0.0"
     inkscape:pagecheckerboard="0"
     inkscape:deskcolor="#d1d1d1"
     inkscape:document-units="mm"
     showgrid="true"
     inkscape:zoom="0.16"
     inkscape:cx="2928.125"
     inkscape:cy="653.125"
     inkscape:window-width="1920"
     inkscape:window-height="1009"
     inkscape:window-x="-8"
     inkscape:window-y="-8"
     inkscape:window-maximized="1"
     inkscape:current-layer="layer1" />
  <defs
     id="defs1">
    <rect
       x="2416.6667"
       y="466.66666"
       width="2333.3333"
       height="533.33331"
       id="rect2" />
  </defs>
  <g
     inkscape:label="Layer 1"
     inkscape:groupmode="layer"
     id="layer1">
    <path
       id="path8"
       style="fill:#49613f;fill-opacity:1;stroke-width:0.264583"
       d="M 265.10992,6.9158569 A 258.19403,258.19403 0 0 0 6.9158569,265.10992 258.19403,258.19403 0 0 0 265.10992,523.30398 258.19403,258.19403 0 0 0 523.30398,265.10992 a 258.19403,258.19403 0 0 0 -0.88781,-21.3956 h -7.32306 -35.5906 -133.4859 v 41.73802 h 133.4859 A 215.93015,215.93015 0 0 1 264.58333,480.51331 215.93015,215.93015 0 0 1 48.653361,264.58333 215.93015,215.93015 0 0 1 264.58333,48.653361 215.93015,215.93015 0 0 1 463.00946,179.41902 h 45.65975 A 258.19403,258.19403 0 0 0 265.10992,6.9158569 Z M 135.20208,137.681 V 395.38362 H 366.21796 V 353.6456 H 176.9401 V 285.45234 H 304.27858 V 243.71432 H 176.9401 v -64.2953 H 366.21796 V 137.681 Z" />
    <text
       xml:space="preserve"
       transform="scale(0.26458333)"
       id="text2"
       style="font-size:192px;text-align:start;writing-mode:lr-tb;direction:ltr;white-space:pre;shape-inside:url(#rect2);fill:#36482e" />
    <text
       xml:space="preserve"
       style="font-style:normal;font-variant:normal;font-weight:900;font-stretch:normal;font-size:175.506px;font-family:Arial;-inkscape-font-specification:'Arial Heavy';text-align:start;writing-mode:lr-tb;direction:ltr;text-anchor:start;fill:#36482e;stroke-width:0.913511"
       x="536.53333"
       y="456.84125"
       id="text4"><tspan
         id="tspan4"
         style="font-style:normal;font-variant:normal;font-weight:900;font-stretch:normal;font-size:175.506px;font-family:Arial;-inkscape-font-specification:'Arial Heavy';fill:#3a3a3a;fill-opacity:1;stroke-width:0.913511"
         x="536.53333"
         y="456.84125"
         sodipodi:role="line">GRAYBILL</tspan></text>
    <text
       xml:space="preserve"
       style="font-style:normal;font-variant:normal;font-weight:900;font-stretch:normal;font-size:174.978px;font-family:Arial;-inkscape-font-specification:'Arial Heavy';text-align:start;writing-mode:lr-tb;direction:ltr;text-anchor:start;fill:#3a3a3a;fill-opacity:1;stroke-width:0.138879"
       x="538.20856"
       y="289.26315"
       id="text5"><tspan
         sodipodi:role="line"
         id="tspan5"
         style="font-style:normal;font-variant:normal;font-weight:900;font-stretch:normal;font-size:174.978px;font-family:Arial;-inkscape-font-specification:'Arial Heavy';fill:#3a3a3a;fill-opacity:1;stroke-width:0.138879"
         x="538.20856"
         y="289.26315">ERIK</tspan></text>
  </g>
</svg>
