<?xml version="1.0" encoding="UTF-8" standalone="no"?>
<svg
   version="1.1"
   id="Layer_1"
   x="0px"
   y="0px"
   width="100%"
   viewBox="0 0 1000 1000"
   enable-background="new 0 0 1000 1000"
   xml:space="preserve"
   sodipodi:docname="Email.svg"
   inkscape:version="1.4.2 (f4327f4, 2025-05-13)"
   xmlns:inkscape="http://www.inkscape.org/namespaces/inkscape"
   xmlns:sodipodi="http://sodipodi.sourceforge.net/DTD/sodipodi-0.dtd"
   xmlns="http://www.w3.org/2000/svg"
   xmlns:svg="http://www.w3.org/2000/svg"><defs
   id="defs17" /><sodipodi:namedview
   id="namedview17"
   pagecolor="#ffffff"
   bordercolor="#000000"
   borderopacity="0.25"
   inkscape:showpageshadow="2"
   inkscape:pageopacity="0.0"
   inkscape:pagecheckerboard="0"
   inkscape:deskcolor="#d1d1d1"
   inkscape:zoom="0.28531759"
   inkscape:cx="723.75489"
   inkscape:cy="877.969"
   inkscape:window-width="1920"
   inkscape:window-height="1009"
   inkscape:window-x="-8"
   inkscape:window-y="-8"
   inkscape:window-maximized="1"
   inkscape:current-layer="Layer_1" />


<path
   fill="#000000"
   opacity="1"
   stroke="none"
   d="m 345.3416,23.981488 c 27.1487,-8.895263 54.45768,-14.6392116 82.18747,-19.0677107 34.62828,-5.53018301 69.41867,-5.29538314 104.19432,-4.47026021 16.17912,0.38388432 32.28003,3.83385901 48.42857,5.79286051 31.28661,3.7954134 61.27139,12.8045244 90.79978,23.2869964 43.04184,15.279683 82.82131,36.823524 120.00759,63.396134 25.86113,18.479872 49.86955,39.031612 71.64196,62.083552 25.14179,26.61935 47.31915,55.58872 66.18625,87.06346 20.68881,34.51353 37.64847,70.78526 48.74687,109.41104 7.08762,24.66691 12.11156,49.99173 16.88276,75.24434 6.42343,33.99713 6.14103,68.55278 4.81297,102.91314 -0.79306,20.51711 -3.39386,41.20669 -7.67665,61.28631 -5.57065,26.11808 -12.5912,52.04252 -20.86815,77.43706 -9.60215,29.46059 -22.48009,57.7134 -39.28694,83.89385 -11.79548,18.37423 -23.94562,36.55052 -36.68727,54.27576 -7.51683,10.45697 -16.33369,20.00529 -24.87061,29.69367 -6.71446,7.62019 -13.63471,15.09736 -20.91433,22.17403 -29.43503,28.61443 -61.93046,53.21406 -97.35701,73.99482 -33.10295,19.41776 -67.98683,34.95971 -104.76275,45.53654 -24.4466,7.03083 -49.64098,11.58377 -74.642,16.53112 -33.5903,6.647 -67.7235,5.9972 -101.64288,4.70946 -28.58838,-1.08533 -56.93447,-5.65564 -84.91113,-12.18953 C 345.43443,977.59512 307.01433,963.53176 270.43893,944.52098 239.60553,928.4949 210.28827,909.98543 183.91161,887.28897 166.80665,872.57061 149.8627,857.50039 134.27746,841.21745 109.82341,815.66867 89.154629,787.07991 70.758168,756.79949 52.982584,727.54072 38.290111,696.77667 27.647542,664.40307 19.50791,639.64294 13.82897,614.00953 8.1380726,588.52267 -0.50556284,549.81203 -1.0308886,510.30308 0.96363267,471.01258 2.2743327,445.19294 6.4381258,419.35951 11.330634,393.91835 c 7.070546,-36.76712 19.780131,-71.84839 35.5528,-105.86172 16.413732,-35.3957 36.469372,-68.52538 61.234836,-98.57966 15.11922,-18.348 30.96282,-36.26831 47.97288,-52.84933 28.01966,-27.3129 59.54848,-50.250234 93.40388,-70.003694 C 279.76411,48.96298 311.73427,35.269345 345.3416,23.981488 M 477.62168,514.75839 c 0,0 0.0711,-0.0207 -0.32488,-0.75007 -1.96544,-1.43902 -3.93085,-2.87803 -5.91878,-4.24649 0,0 0.0711,-0.0207 -0.32495,-0.75011 -1.96545,-1.43906 -3.93093,-2.87811 -5.91886,-4.24655 0,0 0.0711,-0.0208 -0.32496,-0.75013 -1.96544,-1.43905 -3.93088,-2.87809 -5.91886,-4.24655 0,0 0.0711,-0.0207 -0.32495,-0.75012 -1.96545,-1.43905 -3.93089,-2.8781 -5.91885,-4.24655 0,0 0.0711,-0.0207 -0.32497,-0.75012 -1.96547,-1.43902 -3.93092,-2.87806 -5.91885,-4.24655 0,0 0.0711,-0.0208 -0.32495,-0.75012 -1.96545,-1.43901 -3.93093,-2.87807 -5.91886,-4.24655 0,0 0.0711,-0.0208 -0.32496,-0.75013 -1.96545,-1.43904 -3.93092,-2.87806 -5.91882,-4.24651 0,0 0.0711,-0.0207 -0.32599,-0.75118 -1.97104,-1.44546 -3.94209,-2.89088 -6.30924,-5.06591 -10.71868,-8.67434 -21.42698,-17.36156 -32.15831,-26.02015 -19.71187,-15.90463 -39.40396,-31.83404 -59.16634,-47.67569 -20.07376,-16.09127 -40.19428,-32.12456 -60.35013,-48.11283 -9.98777,-7.92257 -20.10098,-15.6871 -30.56862,-24.26473 -3.22419,-2.52048 -6.44842,-5.04096 -10.62375,-8.30498 -0.19244,3.15693 -0.33345,4.39115 -0.33356,5.62537 -0.01,122.74712 -0.0287,245.49427 0.0456,368.24134 0.003,6.37652 2.1758,12.13174 7.38603,16.27913 0,0 -0.07,0.0252 0.35086,0.78058 4.23066,4.83886 9.67135,6.67814 15.96703,6.67746 161.59111,-0.0182 323.18221,-0.01 484.77335,-0.0254 10.77141,-10e-4 20.02357,-7.81415 23.06461,-19.44261 0.12363,-1.86018 0.3554,-3.72036 0.35563,-5.58055 0.017,-118.32542 0.0252,-236.65088 -0.0458,-354.97631 -0.002,-2.82587 -0.9095,-5.65114 -1.25288,-9.33795 0,-1.91593 0,-3.83184 0,-6.29376 -2.8222,1.53046 -5.36218,2.46295 -7.36262,4.06822 -9.64697,7.74184 -19.06779,15.76564 -28.71643,23.50526 -33.10486,26.55508 -66.27452,53.02911 -99.4136,79.54141 -37.4843,29.98861 -74.83377,60.14854 -112.5458,89.84773 -8.05564,6.34405 -17.67978,8.61571 -27.69385,3.32779 -1.62464,-0.85789 -3.39836,-1.43338 -5.12592,-2.06886 0,0 0.0711,-0.0209 -0.32491,-0.75032 -1.96546,-1.43901 -3.9309,-2.87802 -5.91891,-4.24651 m 64.26414,-232.2918 c -90.21697,0 -180.43389,0 -272.10537,0 3.16326,3.07535 5.18503,5.37046 7.53095,7.26365 9.45817,7.63278 19.04714,15.10301 28.53095,22.70434 17.53547,14.05466 35.004,28.19293 52.55025,42.2341 19.95028,15.96489 40.01814,31.78333 59.91587,47.81323 15.21815,12.2599 30.16943,24.85146 45.39616,37.10057 9.76094,7.85216 19.92124,15.20762 29.68188,23.06017 5.9141,4.75795 7.44224,4.75543 13.56418,-0.25195 15.32047,-12.53136 30.77864,-24.89499 46.23452,-37.25977 19.95253,-15.96208 39.97877,-31.8319 59.93161,-47.79348 17.5486,-14.03824 35.00179,-28.19595 52.56662,-42.21375 19.48647,-15.55135 39.0791,-30.96978 58.52829,-46.5673 1.47665,-1.18417 2.17924,-3.33396 3.9004,-6.08981 -62.70619,0 -123.84191,0 -186.22631,0 z"
   id="path3"
   style="stroke-width:1.24896;fill:#49613f;fill-opacity:1" />





<path
   fill="#47704C"
   opacity="1.000000"
   stroke="none"
   d=" M447.935852,484.648346   C446.474457,483.816010 444.854126,482.691284 443.137726,481.225586   C444.620056,482.041748 446.198456,483.198853 447.935852,484.648346  z"
   id="path9" />
<path
   fill="#47704C"
   opacity="1.000000"
   stroke="none"
   d=" M452.936218,488.648743   C451.478119,487.820892 449.861450,486.701141 448.150330,485.241089   C449.629791,486.052826 451.203735,487.204803 452.936218,488.648743  z"
   id="path10" />
<path
   fill="#47704C"
   opacity="1.000000"
   stroke="none"
   d=" M457.936218,492.648743   C456.478119,491.820892 454.861450,490.701141 453.150330,489.241089   C454.629791,490.052826 456.203735,491.204834 457.936218,492.648743  z"
   id="path11" />
<path
   fill="#47704C"
   opacity="1.000000"
   stroke="none"
   d=" M462.936218,496.648743   C461.478119,495.820923 459.861450,494.701141 458.150330,493.241089   C459.629791,494.052826 461.203705,495.204834 462.936218,496.648743  z"
   id="path12" />
<path
   fill="#47704C"
   opacity="1.000000"
   stroke="none"
   d=" M467.936218,500.648743   C466.478119,499.820923 464.861450,498.701172 463.150330,497.241089   C464.629822,498.052795 466.203735,499.204803 467.936218,500.648743  z"
   id="path13" />
<path
   fill="#47704C"
   opacity="1.000000"
   stroke="none"
   d=" M472.936218,504.648743   C471.478119,503.820923 469.861450,502.701172 468.150330,501.241089   C469.629822,502.052795 471.203735,503.204803 472.936218,504.648743  z"
   id="path14" />
<path
   fill="#47704C"
   opacity="1.000000"
   stroke="none"
   d=" M477.936218,508.648743   C476.478119,507.820923 474.861450,506.701141 473.150330,505.241089   C474.629791,506.052795 476.203735,507.204803 477.936218,508.648743  z"
   id="path15" />
<path
   fill="#47704C"
   opacity="1.000000"
   stroke="none"
   d=" M482.936127,512.648682   C481.478027,511.820862 479.861420,510.701141 478.150330,509.241089   C479.629791,510.052795 481.203674,511.204773 482.936127,512.648682  z"
   id="path16" />
<path
   fill="#47704C"
   opacity="1.000000"
   stroke="none"
   d=" M487.936096,516.648682   C486.478027,515.820862 484.861359,514.701111 483.150269,513.241089   C484.629730,514.052734 486.203644,515.204712 487.936096,516.648682  z"
   id="path17" />
</svg>
